<svg xmlns="http://www.w3.org/2000/svg" width="136" height="40" fill="none">
  <mask id="a" width="136" height="40" x="0" y="0" maskUnits="userSpaceOnUse" style="mask-type:alpha">
    <path fill="#fff" d="M135.005 0H0v40h135.005V0Z"/>
  </mask>
  <g mask="url(#a)">
    <mask id="b" width="136" height="40" x="0" y="0" maskUnits="userSpaceOnUse" style="mask-type:alpha">
      <path fill="#fff" d="M135.005 0H0v40h135.005V0Z"/>
    </mask>
    <g mask="url(#b)">
      <path fill="#12100B" d="M130.01 40H4.995C2.257 40 0 37.743 0 35.005V4.995C0 2.236 2.257 0 4.995 0H129.99c2.758 0 4.994 2.257 4.994 4.995v30.01c.021 2.738-2.236 4.995-4.974 4.995Z"/>
    </g>
    <mask id="c" width="136" height="40" x="0" y="0" maskUnits="userSpaceOnUse" style="mask-type:alpha">
      <path fill="#fff" d="M135.005 0H0v40h135.005V0Z"/>
    </mask>
    <g mask="url(#c)">
      <path fill="#AFACAB" d="M130.01.794c2.32 0 4.201 1.881 4.201 4.2v30.011c0 2.32-1.881 4.2-4.201 4.2H4.995a4.2 4.2 0 0 1-4.2-4.2V4.995a4.2 4.2 0 0 1 4.2-4.2H130.01Zm0-.794H4.995C2.257 0 0 2.257 0 4.995v30.01C0 37.764 2.257 40 4.995 40H129.99c2.758 0 4.994-2.257 4.994-4.995V4.995C135.005 2.257 132.748 0 130.01 0Z"/>
    </g>
    <mask id="d" width="136" height="40" x="0" y="0" maskUnits="userSpaceOnUse" style="mask-type:alpha">
      <path fill="#fff" d="M135.005 0H0v40h135.005V0Z"/>
    </mask>
    <g mask="url(#d)">
      <path fill="#fff" d="M68.13 21.756c-2.362 0-4.264 1.797-4.264 4.263 0 2.445 1.923 4.263 4.264 4.263 2.361 0 4.263-1.797 4.263-4.263.02-2.487-1.902-4.263-4.263-4.263Zm0 6.833c-1.296 0-2.404-1.066-2.404-2.57 0-1.526 1.108-2.57 2.404-2.57 1.295 0 2.403 1.044 2.403 2.57 0 1.505-1.108 2.57-2.403 2.57Zm-9.3-6.833c-2.362 0-4.264 1.797-4.264 4.263 0 2.445 1.923 4.263 4.264 4.263 2.361 0 4.263-1.797 4.263-4.263 0-2.487-1.923-4.263-4.263-4.263Zm0 6.833c-1.296 0-2.404-1.066-2.404-2.57 0-1.526 1.108-2.57 2.404-2.57 1.295 0 2.403 1.044 2.403 2.57 0 1.505-1.128 2.57-2.403 2.57Zm-11.077-5.538v1.798h4.326c-.125 1.023-.46 1.755-.982 2.277-.627.627-1.609 1.317-3.344 1.317-2.654 0-4.744-2.132-4.744-4.807 0-2.654 2.07-4.806 4.744-4.806 1.442 0 2.487.564 3.26 1.295l1.275-1.274c-1.086-1.024-2.507-1.819-4.535-1.819-3.636 0-6.708 2.968-6.708 6.604 0 3.637 3.051 6.604 6.708 6.604 1.965 0 3.449-.647 4.598-1.86 1.191-1.19 1.568-2.863 1.568-4.221a5.93 5.93 0 0 0-.105-1.129h-6.06v.021Zm45.309 1.4c-.356-.96-1.442-2.716-3.637-2.716-2.194 0-4.012 1.713-4.012 4.263 0 2.382 1.797 4.263 4.221 4.263 1.944 0 3.072-1.191 3.553-1.88l-1.442-.962c-.48.71-1.15 1.17-2.09 1.17s-1.63-.438-2.069-1.295l5.685-2.362-.21-.48Zm-5.81 1.421c-.042-1.65 1.275-2.486 2.215-2.486.752 0 1.38.376 1.588.898l-3.803 1.588Zm-4.619 4.139h1.86V17.492h-1.86V30.01Zm-3.072-7.315h-.063c-.418-.502-1.233-.961-2.236-.961-2.131 0-4.075 1.86-4.075 4.263 0 2.382 1.944 4.242 4.075 4.242 1.024 0 1.819-.46 2.236-.961h.063v.606c0 1.63-.878 2.487-2.278 2.487-1.15 0-1.86-.815-2.152-1.505l-1.63.67c.46 1.128 1.713 2.507 3.761 2.507 2.195 0 4.055-1.296 4.055-4.43v-7.629H79.54v.71h.021Zm-2.132 5.893c-1.295 0-2.361-1.086-2.361-2.57 0-1.505 1.087-2.592 2.362-2.592 1.274 0 2.277 1.087 2.277 2.592 0 1.484-1.003 2.57-2.277 2.57Zm24.389-11.097h-4.472V29.99h1.86v-4.744h2.612c2.069 0 4.096-1.505 4.096-3.888 0-2.361-2.027-3.866-4.096-3.866Zm.042 6.04h-2.654v-4.284h2.654c1.4 0 2.194 1.15 2.194 2.152 0 .94-.794 2.132-2.194 2.132Zm11.536-1.797c-1.358 0-2.759.585-3.323 1.922l1.651.69c.355-.69 1.003-.92 1.714-.92.961 0 1.943.586 1.964 1.61v.125c-.334-.188-1.066-.48-1.943-.48-1.777 0-3.595.982-3.595 2.82 0 1.672 1.463 2.76 3.114 2.76 1.254 0 1.944-.565 2.382-1.213h.063v.962h1.797v-4.786c-.041-2.257-1.692-3.49-3.824-3.49Zm-.23 6.854c-.606 0-1.463-.313-1.463-1.066 0-.96 1.066-1.337 1.986-1.337.815 0 1.212.167 1.713.418-.167 1.15-1.149 1.985-2.236 1.985Zm10.575-6.583-2.132 5.413h-.063l-2.215-5.413h-2.006l3.323 7.566-1.902 4.221h1.944l5.141-11.787h-2.09Zm-16.803 8.005h1.86V17.492h-1.86V30.01Z"/>
    </g>
    <mask id="e" width="136" height="40" x="0" y="0" maskUnits="userSpaceOnUse" style="mask-type:alpha">
      <path fill="#fff" d="M135.005 0H0v40h135.005V0Z"/>
    </mask>
    <g mask="url(#e)">
      <path fill="#E43629" d="M20.71 19.415 10.074 30.72a2.872 2.872 0 0 0 2.78 2.132c.522 0 1.024-.147 1.463-.397l.041-.021 11.975-6.918-5.621-6.102Z"/>
    </g>
    <mask id="f" width="136" height="40" x="0" y="0" maskUnits="userSpaceOnUse" style="mask-type:alpha">
      <path fill="#fff" d="M135.005 0H0v40h135.005V0Z"/>
    </mask>
    <g mask="url(#f)">
      <path fill="#F9BD00" d="m31.494 17.492-5.183-3.01-5.83 5.204 5.851 5.852 5.141-2.968a2.87 2.87 0 0 0 1.505-2.528 2.884 2.884 0 0 0-1.484-2.55Z"/>
    </g>
    <mask id="g" width="136" height="40" x="0" y="0" maskUnits="userSpaceOnUse" style="mask-type:alpha">
      <path fill="#fff" d="M135.005 0H0v40h135.005V0Z"/>
    </mask>
    <g mask="url(#g)">
      <path fill="#587DBE" d="M10.073 9.28a2.81 2.81 0 0 0-.104.73v19.98c0 .25.042.501.104.731l11.014-11.014L10.073 9.28Z"/>
    </g>
    <mask id="h" width="136" height="40" x="0" y="0" maskUnits="userSpaceOnUse" style="mask-type:alpha">
      <path fill="#fff" d="M135.005 0H0v40h135.005V0Z"/>
    </mask>
    <g mask="url(#h)">
      <path fill="#30A043" d="m20.794 20 5.517-5.517-11.975-6.939a2.987 2.987 0 0 0-1.483-.418 2.872 2.872 0 0 0-2.78 2.132L20.794 20Z"/>
    </g>
  </g>
  <mask id="i" width="136" height="40" x="0" y="0" maskUnits="userSpaceOnUse" style="mask-type:alpha">
    <path fill="#fff" d="M135.005 0H0v40h135.005V0Z"/>
  </mask>
  <g fill="#fff" mask="url(#i)">
    <path d="M42.048 12.895c-.355-.251-.606-.627-.752-1.087l.877-.356c.084.314.23.565.418.711.188.146.418.23.67.23a.918.918 0 0 0 .73-.314c.189-.209.272-.48.272-.836V6.897h.962v4.284c0 .439-.084.815-.251 1.128a1.738 1.738 0 0 1-.69.71c-.292.168-.627.252-1.003.252a2.1 2.1 0 0 1-1.233-.377ZM46.771 6.897h3.783v.898h-2.822v1.756h2.55v.898h-2.55v1.756h2.822v.899H46.77V6.897ZM53.166 7.816H51.41v-.899h4.45v.9h-1.734v5.328h-.961V7.816ZM56.593 12.163l3.26-4.347H56.74v-.899h4.221v.962l-3.24 4.347h3.282v.898h-4.41v-.961ZM63.553 7.816h-1.756v-.899h4.452v.9h-1.735v5.328h-.961V7.816ZM69.216 6.897h2.34c.335 0 .649.062.92.209.293.146.502.334.67.606.166.25.25.522.25.836 0 .313-.084.585-.23.815-.146.23-.355.397-.606.522v.042a1.498 1.498 0 0 1 1.066 1.442c0 .334-.084.648-.272.92-.167.271-.418.46-.71.626-.293.147-.627.23-.983.23h-2.445V6.897Zm2.299 2.633c.293 0 .522-.084.69-.272a.837.837 0 0 0 .25-.606.837.837 0 0 0-.25-.606c-.168-.167-.397-.25-.67-.25h-1.358V9.53h1.338Zm.146 2.717c.293 0 .544-.084.732-.272a.87.87 0 0 0 .272-.648c0-.25-.105-.48-.293-.669-.188-.188-.439-.271-.752-.271h-1.443v1.88h1.484v-.02ZM74.88 6.897h3.782v.898h-2.821v1.756h2.529v.898h-2.55v1.756h2.821v.899H74.86V6.897h.02ZM80 6.897h.961v6.227H80V6.897Z"/>
  </g>
</svg>
