<svg xmlns="http://www.w3.org/2000/svg" viewBox="0 0 118 24">
    <g fill="none" fill-rule="evenodd">
        <path fill="#00FFD0" d="M45.552 22.872c.041.353-.225.638-.225.638l-.3-.095s-2.207-.794-5.602-1.81c0 0-3.004-.91-4.225-1.319 0 0-.261-.102-.774-.05-.513.05-2.287.187-3.454.312l-1.784.205c-3.222.377-4.694.443-4.694.443-5.114.504-6.338.597-6.338.597-2.7.202-4.42.53-8.458.798l-7.602.776s-.542.06-.546.057l-.202.019c-.168-.114-.188-.247-.188-.247l.007-.288c.321-.118-.04-.47-.04-.47-.164-.072-.11-.196-.11-.196.002-.024.015-.038.024-.054.016-.03.051-.079.048-.086-.036-.093.133-.427.133-.427-.086-.11-.052-.09-.138-.199-.054-.07-.08-.279-.093-.427-.009-.103.171-.306.124-.362-.077-.091-.157-.173-.233-.27a.402.402 0 01-.061-.15.168.168 0 01.025-.107c.054-.079.056-.082-.012-.208-.026-.048-.055-.086-.083-.131-.059-.099.135-.318.117-.46a1.253 1.253 0 00-.047-.202 1.81 1.81 0 01-.04-.164.689.689 0 01-.015-.04.175.175 0 01-.008-.094.538.538 0 01-.003-.144l-.063-.21c-.016-.054-.013-.101.007-.133.006-.009.011-.019.019-.023.04-.023.025-.12.042-.175l-.024-.03c-.027-.034-.038-.059-.03-.084.02-.057.002-.141.007-.207a.588.588 0 00-.042-.237c-.013-.036-.02-.075-.03-.113-.013-.05-.01-.089.004-.114.022-.039.047-.07.07-.107.016-.025.013-.091-.008-.142a1.804 1.804 0 00-.051-.11 1.607 1.607 0 00-.082-.116.36.36 0 01-.086-.291c.013-.077-.002-.118-.044-.165a.504.504 0 01-.075-.11c-.081-.164-.077-.214.016-.227.084-.012.1-.034.072-.212-.026-.168-.023-.269.064-.293.045-.012.087-.066.069-.198-.018-.134.039-.377-.037-.409-.097-.04-.107-.21-.162-.31 0-.003.008-.04.013-.038.015.006.031.031.046.037.019.007.036.003.054.004-.013-.04-.023-.091-.04-.115-.053-.071-.07-.124-.07-.244 0-.14-.009-.327-.13-.43-.019-.017-.042-.114-.045-.164-.002-.035.025-.064.045-.077.021-.014.051 0 .075-.01.021-.01.038-.034.058-.052-.018-.043-.032-.097-.053-.128a.73.73 0 00-.109-.128c-.066-.061-.099-.171-.056-.22.071-.079.014-.145-.031-.228a.896.896 0 01-.066-.15.25.25 0 01-.004-.1c.016-.03.072-.137.202-.13.057.004.065-.078.063-.098-.017-.044-.157-.006-.177-.025-.049-.047.005-.064-.045-.1-.05-.038-.134-.252-.12-.32.009-.038.043-.046.069-.053.038-.01.091.021.025-.13-.044-.098-.025-.057.005-.177.014-.06.045-.035.023-.104l.041-.036s.645-.097.736-.107c.183-.019.03-.272.03-.272-.053-.341-.012-.485-.015-.53-.023-.274-.116-.315-.224-.382-.025-.016-.058-.121-.072-.188-.005-.023.03-.077.053-.076.038.002.053-.022.094.001.013.007.024-.05.037-.042C.8 9.86.82 9.87.81 9.851c-.027-.053-.05-.013-.076-.067a.583.583 0 01-.057-.156c-.003-.02.032-.05.054-.056.037-.009.057-.111.016-.22-.03-.081-.034-.077-.054-.168-.032-.149-.016-.241.04-.297.068-.066.06-.132-.022-.262-.007-.01-.013-.023-.02-.031-.036-.039-.072-.072-.07-.161.004-.103.077-.176.108-.17.023.006.036-.05.039-.068.016-.114.012-.079-.017-.14-.033-.069-.108-.067-.172-.075-.125-.016-.11-.065-.177-.156-.06-.08-.08-.11-.03-.178.013-.018.093-.033.115-.03.05.006.031-.034.037-.13.001-.027.009-.05.015-.07.05-.162.048-.162-.008-.41-.04-.176-.07-.34-.003-.46.044-.079.012-.34.07-.354.035-.009.037-.11.046-.164.006-.037.012-.05.032-.053.012-.001.027-.039.034-.062.015-.047-.062-.124-.08-.162a2.394 2.394 0 00-.093-.192c-.048-.085-.084-.154-.013-.186.048-.022.035-.127.002-.173-.074-.105-.09-.229-.116-.355C.407 4.83.402 4.814.4 4.799.395 4.721.31 4.652.348 4.58c.02-.038.07-.013.1-.038.054-.045.172-.112.11-.162-.018-.015.004-.107-.01-.129-.042-.063-.058-.113-.103-.154C.367 4.028.402 4.06.346 3.93l-.011-.068c-.022-.071.064-.077.064-.077l.826-.105s2.18-.235 4.242-.444c0 0 1.577-.157 8.197-.843 0 0 2.798-.248 5.987-.685 0 0 2.79-.34 8.538-.814 0 0 3.923-.41 6.745-.761 0 0 1.035-.164 1.757.201 0 0 4.603 1.974 6.23 2.603l7.728 3.385c.197.108.068.195.068.195-.013.02-.037.027-.056.038-.037.021-.106.05-.105.058.01.088.013.19.051.254.07.117.032.09.103.206.046.074-.01.256-.057.384-.032.088-.37.205-.33.265.068.1.142.19.205.294.021.034.03.098.02.143-.007.032-.05.068-.082.082-.109.05-.113.052-.074.177.015.047.04.088.058.133.04.1-.325.226-.362.35a.676.676 0 00-.023.182c0 .039-.007.093-.016.148a.364.364 0 01.003.037.107.107 0 01-.03.082.343.343 0 01-.058.12l-.004.194a.12.12 0 01-.068.109c-.012.006-.024.012-.036.014-.065.007-.088.093-.135.132l.02.033c.023.037.027.06.004.078-.055.044-.064.126-.104.18-.054.072-.036.153-.04.232-.001.024-.005.048-.007.072a.112.112 0 01-.057.094c-.046.026-.095.045-.142.069-.034.016-.058.072-.051.12.005.037.014.073.022.108.02.042.04.083.063.12.054.088.069.178-.008.268-.05.06-.048.099-.01.15a.36.36 0 01.055.113c.042.162.014.202-.12.185-.122-.014-.153 0-.192.156-.038.148-.087.23-.217.226-.068-.003-.15.03-.182.145-.034.117-.013.262.077.31.116.063.057.207.088.307 0 .002-.027.03-.033.027-.018-.01-.03-.035-.048-.044-.023-.012-.049-.013-.074-.02.002.037-.007.084.007.108.042.076.043.125-.01.224-.063.117-.13.276-.007.398.018.018.009.106-.01.149-.012.03-.062.046-.095.051-.036.005-.072-.015-.108-.014-.034.002-.069.017-.103.027.005.041.002.09.017.122a.566.566 0 00.095.139c.064.07.063.172-.019.199-.132.045-.082.117-.056.2a.503.503 0 01.027.144c0 .027-.026.083-.04.084-.105.013-.213.131-.317.032-.015-.015-.047-.005-.072-.006.004.042-.004.101.014.122.048.054.109.09.163.135.054.046.076.249.025.302-.027.028-.078.025-.116.023-.058-.003-.118-.044-.092.101.017.095-.01.195-.118.198-.087.002-.096.1-.096.163 0 .143-.05.229-.15.288-.051.03-.113.057-.014.115.09.053.13.147.108.307-.017.13-.037.293.083.381.027.02.027.118.018.178-.003.02-.075.056-.107.048-.052-.013-.097-.055-.144-.086-.015-.01-.028-.023-.042-.034-.008.025-.028.057-.023.074.016.053.046.097.06.15.012.045.02.1.01.146-.004.018-.066.033-.099.03-.055-.003-.087-.01-.078.093.005.076-.026.161-.039.243-.02.133-.083.205-.185.235-.121.036-.14.093-.083.225.005.011.009.024.015.033.032.042.068.08.025.154-.05.085-.078.013-.118-.003-.03-.01-.094-.004-.1.011-.02.068-.045.153-.03.212.015.067.069.117.11.17.065.084.145.153.199.248.048.083.016.13-.072.126a.368.368 0 01-.093-.015c-.065-.02-.123-.01-.173.07-.014.021-.034.037-.052.053-.14.12-.137.12-.167.343-.02.16-.052.304-.197.385-.095.053-.164.28-.252.275-.051-.003-.098.081-.134.123-.024.03-.038.039-.067.035-.018-.003-.04-.033-.06-.016-.041.035.018.179.024.216.012.065.027.127.047.188.028.085.049.153-.064.159-.076.004-.103.095-.078.144.057.108.025.216.005.33-.002.013-.001.028-.006.04-.025.067.061.15-.022.198-.044.026-.103-.01-.154.003a1.88 1.88 0 00-.284.092c-.012.005-.028.082-.018.105a.65.65 0 00.112.175c.077.08.125.181.145.306.016.095.005.181-.07.258-.126.13-.088.313-.088.313"/>
        <path fill="#333" d="M19.833 9.063c-.553-.475-1.291-.736-2.079-.736-1.413 0-2.524.644-2.968 1.7-.47-1.248-1.6-1.7-2.543-1.7-1.046 0-1.91.458-2.359 1.238l-.241-.998H8.222v9.555h1.74v-5.878c0-1.407.792-2.317 2.018-2.317 1.054 0 1.66.656 1.66 1.799v6.396h1.74v-5.878c0-1.407.791-2.317 2.017-2.317 1.054 0 1.66.656 1.66 1.799v6.396h1.74v-6.821c0-.923-.334-1.696-.964-2.238m13.542 0c-.553-.475-1.291-.736-2.079-.736-1.413 0-2.524.644-2.968 1.7-.47-1.248-1.6-1.7-2.543-1.7-1.046 0-1.909.458-2.359 1.238l-.241-.998h-1.42v9.555h1.74v-5.878c0-1.407.791-2.317 2.017-2.317 1.054 0 1.66.656 1.66 1.799v6.396h1.74v-5.878c0-1.407.792-2.317 2.017-2.317 1.055 0 1.66.656 1.66 1.799v6.396h1.74v-6.821c0-.923-.333-1.696-.964-2.238m7.028 7.849c-1.442 0-2.901-1.183-2.901-3.443 0-1.983 1.22-3.423 2.9-3.423 1.66 0 2.866 1.44 2.866 3.423 0 2.26-1.442 3.443-2.865 3.443m-.018-8.585c-1.351 0-2.513.524-3.358 1.516-.798.936-1.237 2.224-1.237 3.626 0 1.41.44 2.7 1.237 3.634.844.987 2.005 1.51 3.358 1.51 2.662 0 4.594-2.164 4.594-5.144s-1.932-5.142-4.594-5.142M4.836 6.065v12.057h1.935V5.388zm93.462 10.338c.265-.204.533-.407.8-.61 2.47-1.872 5.024-3.809 5.024-6.64 0-2.217-1.625-3.765-3.952-3.765-2.044 0-4.244 1.347-4.244 4.304 0 .143.01.301.025.4l1.666-.633c0-1.627 1.23-2.478 2.443-2.478 1.18 0 2.37.739 2.37 2.388 0 2.136-2.214 3.808-5.279 6.123-.437.33-.892.673-1.361 1.034l-.028.02v1.576h8.706v-1.719h-6.17zM56.687 11.11l-.154-.058c-1.403-.542-2.396-1.018-2.396-2.22 0-1.185.985-1.805 1.959-1.805.785 0 1.78.4 2.168 1.274l1.652-.615-.025-.059c-.65-1.547-2.365-2.24-3.777-2.24-1.848 0-3.838 1.117-3.838 3.57 0 2.394 1.915 3.14 3.454 3.739l.189.074c1.571.62 2.602 1.12 2.602 2.345 0 1.271-1.115 1.84-2.22 1.84-1.093 0-2.397-.558-2.782-2.124l-.017-.069-1.752.637c.528 1.956 2.27 3.213 4.476 3.213 1.109 0 2.141-.324 2.907-.912.866-.665 1.323-1.614 1.323-2.746 0-2.404-2.002-3.169-3.769-3.843m20.945 2.359c0 2.277-1.454 3.47-2.89 3.47-1.455 0-2.927-1.193-2.927-3.47 0-2 1.23-3.451 2.927-3.451 1.675 0 2.89 1.45 2.89 3.45m-2.908-5.142c-2.663 0-4.595 2.162-4.595 5.142 0 2.98 1.932 5.143 4.595 5.143 2.662 0 4.594-2.163 4.594-5.143s-1.932-5.142-4.594-5.142m12.109 5.992c0 1.764-1.282 2.716-2.49 2.716-.918 0-1.9-.552-1.9-2.103V8.816H80.77v6.116c0 2.716 1.747 3.68 3.243 3.68 1.203 0 2.263-.58 2.813-1.528l.32 1.305h1.363V8.816h-1.675v5.503zm5.655-7.952l-1.548.637v2.032h-1.465v1.505h1.465v5.128c0 2.561 1.366 2.943 2.18 2.943.362 0 .736-.06 1.143-.184l.048-.015v-1.638l-.102.07c-.239.164-.519.262-.748.262-.618 0-.973-.478-.973-1.31V10.54h1.823V9.036h-1.823V6.367z"/>
        <path fill="#333" d="M111.879 13.278V9.473l-1.75.653v3.152h-3.926l4.788-7.89h-1.942l-5.065 8.325v1.275h6.145v3.134h1.75v-3.134h2.262v-1.71zm-43.304 2.129c-.5.938-1.433 1.513-2.481 1.513-1.455 0-2.922-1.073-2.922-3.47 0-1.652.879-3.431 2.809-3.431.962 0 1.817.52 2.27 1.37l1.631-.632-.03-.063c-.677-1.46-2.16-2.367-3.871-2.367-1.205 0-2.32.453-3.142 1.276-.926.93-1.416 2.266-1.416 3.866 0 3.534 2.382 5.143 4.595 5.143 1.72 0 3.245-.948 4.078-2.535l.033-.063-.014-.006-1.54-.6z"/>
    </g>
</svg>
